<svg width="16" height="17" viewBox="0 0 16 17" fill="none" xmlns="http://www.w3.org/2000/svg">
<path d="M8.0026 15.6693C4.04927 15.6693 0.835938 12.4559 0.835938 8.5026C0.835938 4.54927 4.04927 1.33594 8.0026 1.33594C11.9559 1.33594 15.1693 4.54927 15.1693 8.5026C15.1693 12.4559 11.9559 15.6693 8.0026 15.6693ZM8.0026 2.33594C4.6026 2.33594 1.83594 5.1026 1.83594 8.5026C1.83594 11.9026 4.6026 14.6693 8.0026 14.6693C11.4026 14.6693 14.1693 11.9026 14.1693 8.5026C14.1693 5.1026 11.4026 2.33594 8.0026 2.33594Z" fill="white"/>
<path d="M9.66406 9H5.66406C5.39073 9 5.16406 8.77333 5.16406 8.5C5.16406 8.22667 5.39073 8 5.66406 8H9.66406C9.9374 8 10.1641 8.22667 10.1641 8.5C10.1641 8.77333 9.9374 9 9.66406 9Z" fill="white"/>
<path d="M8.33427 10.9983C8.2076 10.9983 8.08094 10.9517 7.98094 10.8517C7.7876 10.6583 7.7876 10.3383 7.98094 10.145L9.6276 8.49833L7.98094 6.85167C7.7876 6.65833 7.7876 6.33833 7.98094 6.145C8.17427 5.95167 8.49427 5.95167 8.6876 6.145L10.6876 8.145C10.8809 8.33833 10.8809 8.65833 10.6876 8.85167L8.6876 10.8517C8.5876 10.9517 8.46094 10.9983 8.33427 10.9983Z" fill="white"/>
</svg>
