<svg width="1314" height="235" viewBox="0 0 1314 235" fill="none" xmlns="http://www.w3.org/2000/svg">
<path d="M405.32 39.26H422.06L385.34 182H360.86L324.14 39.26H340.97L371.48 162.56C371.72 163.22 371.9 164 372.02 164.9C372.2 165.74 372.32 166.49 372.38 167.15L372.56 172.01H373.64L373.91 167.15C373.97 166.49 374.06 165.74 374.18 164.9C374.3 164 374.48 163.22 374.72 162.56L405.32 39.26ZM454.381 46.19V63.02H437.821V46.19H454.381ZM437.821 75.26H454.381V182H437.821V75.26ZM544.923 39.17H561.483V182H544.923V172.55C544.923 172.13 545.043 171.68 545.283 171.2L549.063 164.63L548.163 164.36C546.543 167.66 543.963 170.9 540.423 174.08C534.003 179.84 524.283 182.72 511.263 182.72C510.903 182.72 510.513 182.72 510.093 182.72C495.993 182.48 486.333 178.55 481.113 170.93C475.893 163.25 473.283 149.09 473.283 128.45C473.283 108.11 475.893 94.1 481.113 86.42C486.333 78.68 495.993 74.66 510.093 74.36C510.633 74.36 511.143 74.36 511.623 74.36C524.463 74.36 534.063 77.24 540.423 83C543.903 86.18 546.483 89.42 548.163 92.72L549.153 92.45L545.193 85.34C545.013 84.98 544.923 84.53 544.923 83.99V39.17ZM516.393 171.11C526.473 171.11 533.763 168.86 538.263 164.36C542.403 160.22 544.623 154.73 544.923 147.89V109.28C544.623 102.38 542.403 96.86 538.263 92.72C533.763 88.22 526.473 85.97 516.393 85.97C506.133 85.97 499.173 88.25 495.513 92.81C491.853 97.37 490.023 109.28 490.023 128.54C490.023 148.16 491.853 160.16 495.513 164.54C499.173 168.92 506.133 171.11 516.393 171.11ZM662.291 141.05C661.511 153.11 659.381 162.02 655.901 167.78C652.421 173.54 647.951 177.5 642.491 179.66C637.091 181.82 628.811 182.9 617.651 182.9C599.531 182.9 587.411 178.91 581.291 170.93C575.111 162.95 572.021 148.79 572.021 128.45C572.021 107.51 575.171 93.26 581.471 85.7C587.771 78.14 599.741 74.36 617.381 74.36C635.261 74.36 647.231 78.14 653.291 85.7C659.411 93.26 662.471 106.19 662.471 124.49L662.381 129.44H588.041C588.341 147.5 590.381 158.99 594.161 163.91C598.241 169.25 606.071 171.92 617.651 171.92C624.851 171.92 629.981 171.32 633.041 170.12C636.161 168.86 638.861 165.95 641.141 161.39C643.481 156.77 645.041 149.99 645.821 141.05H662.291ZM646.001 119.81C645.941 105.71 643.901 96.44 639.881 92C635.861 87.56 628.391 85.34 617.471 85.34C606.371 85.34 598.691 87.68 594.431 92.36C590.591 96.62 588.491 105.77 588.131 119.81H646.001ZM721.538 182.81C705.458 182.81 693.788 179.03 686.528 171.47C679.268 163.85 675.638 149.48 675.638 128.36C675.638 107.3 679.268 93.02 686.528 85.52C693.788 78.02 705.458 74.27 721.538 74.27C737.678 74.27 749.348 78.02 756.548 85.52C763.808 93.02 767.438 107.3 767.438 128.36C767.438 149.48 763.808 163.85 756.548 171.47C749.348 179.03 737.678 182.81 721.538 182.81ZM721.628 171.38C732.368 171.38 739.928 168.98 744.308 164.18C748.748 159.32 750.968 147.41 750.968 128.45C750.968 109.49 748.748 97.64 744.308 92.9C739.928 88.1 732.368 85.7 721.628 85.7C710.888 85.7 703.298 88.1 698.858 92.9C694.418 97.64 692.198 109.49 692.198 128.45C692.198 147.41 694.418 159.32 698.858 164.18C703.298 168.98 710.888 171.38 721.628 171.38ZM797.242 182H780.682V39.26H810.472L866.182 168.41H867.262L865.372 129.53C865.312 128.27 865.252 126.89 865.192 125.39C865.192 123.83 865.192 122.42 865.192 121.16V39.26H881.752V182H852.952L796.252 50.96H795.262L797.062 86.51C797.182 87.59 797.242 88.79 797.242 90.11C797.242 91.43 797.242 92.63 797.242 93.71V182ZM971.659 165.8L970.129 165.44C968.329 168.68 966.469 171.35 964.549 173.45C962.689 175.55 960.349 177.35 957.529 178.85C954.709 180.35 951.229 181.4 947.089 182C943.009 182.66 938.329 182.99 933.049 182.99C929.509 182.99 925.969 182.72 922.429 182.18C918.889 181.64 915.589 180.77 912.529 179.57C909.469 178.31 906.769 176.63 904.429 174.53C902.149 172.43 900.349 169.58 899.029 165.98C897.709 162.32 897.049 157.28 897.049 150.86C897.049 145.64 897.679 141.35 898.939 137.99C900.259 134.57 902.059 131.66 904.339 129.26C906.619 126.8 909.349 124.88 912.529 123.5C915.709 122.06 919.159 121.04 922.879 120.44C926.599 119.78 930.349 119.45 934.129 119.45H967.789V111.71C967.789 103.13 966.829 97.07 964.909 93.53C962.989 89.99 960.409 87.77 957.169 86.87C953.989 85.91 948.439 85.43 940.519 85.43C933.559 85.43 928.189 86 924.409 87.14C920.689 88.22 917.899 90.41 916.039 93.71C914.239 96.95 913.339 102.05 913.339 109.01C913.339 109.19 913.339 109.4 913.339 109.64H897.679C897.739 101.06 898.969 94.52 901.369 90.02C903.829 85.46 906.889 82.19 910.549 80.21C914.269 78.17 918.349 76.7 922.789 75.8C927.229 74.84 933.319 74.36 941.059 74.36C953.119 74.36 961.669 75.29 966.709 77.15C971.809 79.01 976.009 82.52 979.309 87.68C982.669 92.78 984.349 101.06 984.349 112.52V182H968.239V173.36C968.239 172.76 968.329 172.13 968.509 171.47C968.689 170.81 968.959 170.24 969.319 169.76L971.659 165.8ZM936.739 172.01C940.879 172.01 944.719 171.71 948.259 171.11C951.799 170.51 954.919 169.49 957.619 168.05C960.319 166.55 962.599 164.75 964.459 162.65C966.379 160.55 967.489 158.3 967.789 155.9L968.149 129.08H936.109C933.229 129.08 930.439 129.38 927.739 129.98C925.039 130.52 922.639 131.57 920.539 133.13C918.499 134.63 916.879 136.79 915.679 139.61C914.479 142.37 913.879 146 913.879 150.5C913.879 156.02 914.479 160.22 915.679 163.1C916.939 165.92 918.619 167.93 920.719 169.13C922.879 170.27 925.339 171.05 928.099 171.47C930.859 171.83 933.739 172.01 936.739 172.01ZM1038.7 182C1029.16 182 1022.59 180.32 1018.99 176.96C1015.45 173.6 1013.68 167.3 1013.68 158.06V87.68H995.325V75.35H999.915C1002.31 75.35 1004.5 74.93 1006.48 74.09C1008.52 73.19 1010.26 71.99 1011.7 70.49C1013.2 68.93 1014.34 67.1 1015.12 65C1015.96 62.9 1016.38 60.59 1016.38 58.07V39.17H1032.85V58.07C1032.85 60.77 1032.49 63.11 1031.77 65.09C1031.05 67.01 1030.06 68.63 1028.8 69.95C1027.6 71.27 1026.22 72.29 1024.66 73.01C1023.1 73.67 1021.48 74.09 1019.8 74.27V75.35H1067.59V87.68H1030.24V154.1C1030.24 160.22 1031.32 164.21 1033.48 166.07C1035.7 167.93 1039.15 168.86 1043.83 168.86C1049.83 168.86 1057.78 168.83 1067.68 168.77V182C1056.34 182 1046.68 182 1038.7 182ZM1099.67 46.19V63.02H1083.11V46.19H1099.67ZM1083.11 75.26H1099.67V182H1083.11V75.26ZM1162.05 182.81C1145.97 182.81 1134.3 179.03 1127.04 171.47C1119.78 163.85 1116.15 149.48 1116.15 128.36C1116.15 107.3 1119.78 93.02 1127.04 85.52C1134.3 78.02 1145.97 74.27 1162.05 74.27C1178.19 74.27 1189.86 78.02 1197.06 85.52C1204.32 93.02 1207.95 107.3 1207.95 128.36C1207.95 149.48 1204.32 163.85 1197.06 171.47C1189.86 179.03 1178.19 182.81 1162.05 182.81ZM1162.14 171.38C1172.88 171.38 1180.44 168.98 1184.82 164.18C1189.26 159.32 1191.48 147.41 1191.48 128.45C1191.48 109.49 1189.26 97.64 1184.82 92.9C1180.44 88.1 1172.88 85.7 1162.14 85.7C1151.4 85.7 1143.81 88.1 1139.37 92.9C1134.93 97.64 1132.71 109.49 1132.71 128.45C1132.71 147.41 1134.93 159.32 1139.37 164.18C1143.81 168.98 1151.4 171.38 1162.14 171.38ZM1289.5 120.53C1289.5 107.03 1288.03 97.88 1285.09 93.08C1282.15 88.28 1275.97 85.88 1266.55 85.88C1257.01 85.88 1250.02 88.43 1245.58 93.53C1242.46 97.19 1240.45 101.96 1239.55 107.84V182H1222.99V75.35H1239.55V85.34C1239.55 85.82 1239.46 86.3 1239.28 86.78L1235.77 93.98L1235.86 94.07C1237.48 91.19 1239.55 88.34 1242.07 85.52C1248.67 77.96 1258.24 74.18 1270.78 74.18C1271.62 74.18 1272.49 74.21 1273.39 74.27C1286.59 74.87 1295.32 79.1 1299.58 86.96C1303.84 94.82 1305.97 105.98 1305.97 120.44V182H1289.5V120.53Z" fill="url(#paint0_linear_28218_20774)"/>
<g clip-path="url(#clip0_28218_20774)">
<path d="M111.79 0.915375C96.9922 3.54838 84.1917 8.542 72.1176 16.441C63.4024 22.0702 49.2402 36.3247 43.6116 44.9501C20.6434 80.2686 21.4605 124.939 45.6088 159.44C51.0558 167.249 63.0392 178.961 70.8466 184.045C79.3802 189.674 82.4668 191.218 78.0185 187.495C58.1369 171.243 45.5181 150.089 41.7052 126.301C32.8992 72.3696 69.848 22.0702 124.046 14.1712C133.396 12.8093 150.645 13.4448 159.269 15.5331C180.694 20.6175 202.664 34.872 215.374 51.8504L217.462 54.5742L215.646 50.8516C212.65 44.7685 203.572 33.147 196.854 26.973C178.062 9.72231 156.546 0.915375 131.127 0.0982361C123.047 -0.174143 116.511 0.0982362 111.79 0.915375Z" fill="url(#paint1_linear_28218_20774)"/>
<path d="M63.4041 9.18052C62.4962 9.90687 62.1331 10.5424 62.6778 10.5424C63.2225 10.5424 64.2211 9.90687 64.8566 9.18052C66.3091 7.45545 65.6736 7.45545 63.4041 9.18052Z" fill="url(#paint2_linear_28218_20774)"/>
<path d="M56.4108 12.9912C53.9596 14.7163 53.2334 15.6242 53.9596 16.3505C54.6859 17.0769 55.6845 16.5321 57.591 14.4439C58.9527 12.9004 60.4053 11.8109 60.6776 12.0833C60.95 12.4464 61.2223 12.1741 61.2223 11.6293C61.2223 10.0858 60.3145 10.3582 56.4108 12.9912Z" fill="url(#paint3_linear_28218_20774)"/>
<path d="M51.1477 16.6255C51.057 17.0795 51.057 17.7151 51.1477 18.0782C51.2385 18.5322 50.8754 18.623 50.3307 18.2598C49.0597 17.4427 46.5178 19.5309 47.3348 20.802C47.6072 21.3468 47.4256 21.4376 46.7901 21.0744C45.4284 20.1665 34.716 29.4274 35.533 30.7893C35.8054 31.2432 35.6238 31.4248 35.1699 31.1524C33.8989 30.3353 30.9031 33.7854 31.8109 35.1473C32.174 35.8737 32.0833 36.0553 31.357 35.6013C30.1768 34.875 25.3653 40.141 25.3653 42.2292C25.3653 43.0463 24.8206 43.6819 24.2759 43.6819C22.0971 43.6819 12.1109 61.0234 7.57177 72.4633C-2.95908 99.3381 -2.50517 132.932 8.93352 160.987C10.7492 165.254 12.4741 169.067 12.8372 169.34C13.2911 169.612 13.6543 170.338 13.745 170.974C13.9266 171.609 15.2884 174.152 16.8317 176.785C19.0105 180.235 19.9183 181.052 20.5538 180.144C21.1893 179.327 21.28 179.418 20.9169 180.689C20.5538 181.778 21.4616 183.957 23.7312 187.044C28.4519 193.672 35.8962 201.299 36.9856 200.573C37.5303 200.3 37.621 200.482 37.2579 201.027C36.804 201.844 40.7984 205.657 50.0583 213.011C55.1422 217.097 73.4804 226.63 76.6578 226.903C77.6565 226.993 78.4735 227.266 78.4735 227.629C78.4735 228.446 90.5477 231.805 99.8076 233.53C115.332 236.345 139.48 234.983 153.37 230.534C163.084 227.447 171.98 223.725 171.526 222.908C171.163 222.454 171.526 222.272 172.162 222.544C173.705 223.089 184.327 217.097 184.054 215.826C183.873 215.281 184.508 215.19 185.325 215.463C186.415 215.917 186.596 215.735 186.052 214.827C185.598 214.101 185.689 213.828 186.233 214.192C187.323 214.918 199.215 206.111 199.215 204.658C199.215 204.113 199.488 203.841 199.76 204.204C200.668 205.112 203.028 202.207 202.302 201.117C201.848 200.391 202.03 200.3 202.756 200.754C204.208 201.571 214.739 190.404 214.194 188.679C213.922 188.043 214.104 187.68 214.467 187.952C214.921 188.225 217.009 185.864 219.097 182.777L223 177.148L217.553 183.049C214.558 186.318 212.379 189.314 212.651 189.768C212.924 190.222 212.742 190.313 212.197 190.041C211.108 189.314 203.573 195.579 204.208 196.668C204.481 197.032 203.936 197.304 203.028 197.213C202.211 197.213 201.576 197.576 201.666 198.212C201.848 198.847 201.394 199.12 200.759 198.847C200.123 198.666 198.489 199.483 197.127 200.663C195.765 201.934 194.404 203.024 194.222 203.024C192.951 203.024 188.321 205.929 188.321 206.656C188.321 207.2 188.049 207.473 187.686 207.382C186.233 206.928 176.61 211.559 177.155 212.376C177.518 212.92 177.246 213.011 176.61 212.648C175.975 212.194 173.433 212.739 170.8 213.738C148.74 222.363 113.425 222.272 92.6357 213.556C90.6385 212.739 88.4597 212.285 87.8242 212.557C87.0979 212.739 86.7348 212.648 87.0979 212.194C87.3703 211.74 86.2809 210.923 84.6468 210.378C83.0127 209.833 78.2012 207.382 73.9343 204.931C69.7583 202.479 65.8546 200.663 65.4007 200.936C64.9468 201.208 64.856 201.026 65.2191 200.482C65.9454 199.301 62.6772 197.304 61.6786 198.303C61.2247 198.666 61.2247 198.484 61.497 197.94C62.1325 196.85 57.7749 193.309 56.4132 193.763C56.05 193.854 55.8685 193.4 55.9593 192.855C56.1408 192.22 55.6869 191.766 55.0514 191.947C54.3252 192.038 54.0528 191.766 54.3252 191.312C54.5975 190.858 53.5081 189.587 51.874 188.497C50.3307 187.317 46.6086 183.413 43.7035 179.69C40.7984 176.058 38.0749 173.244 37.621 173.516C37.2579 173.789 36.3501 173.244 35.7146 172.336C34.5344 170.974 34.6252 170.883 36.0777 172.063C38.3473 173.879 37.9842 172.517 34.8975 168.069C33.445 165.98 30.4492 160.624 28.2704 156.356C26.0916 152.089 24.0035 148.82 23.5496 149.184C23.1865 149.638 23.0957 149.365 23.4588 148.82C23.822 148.185 23.0957 144.735 21.734 141.194C20.463 137.653 18.5565 130.026 17.5579 124.215C15.016 110.233 15.4699 91.5299 18.5565 78.6373C19.7367 73.916 20.6446 68.8316 20.6446 67.4697C20.6446 66.017 20.9169 65.3815 21.28 65.9262C21.734 66.6526 22.1879 66.1078 22.551 64.5643C22.9141 63.2932 22.9141 61.7498 22.551 61.205C22.1879 60.6602 22.2787 60.4786 22.8234 60.751C24.0943 61.5682 26.1823 56.3929 25.2745 54.8495C24.9114 54.2139 24.9114 53.9415 25.3653 54.3047C25.8192 54.7587 27.9072 51.9441 30.086 48.1308C34.2621 40.6857 34.5344 40.0502 32.9003 41.0489C32.2648 41.4121 32.174 41.3213 32.5372 40.5949C32.9003 40.0502 33.5358 39.7778 33.9897 40.0502C35.0791 40.6857 36.8948 37.3264 35.9869 36.4184C35.6238 35.9645 35.8962 35.9645 36.5316 36.3277C37.5303 36.8724 38.075 35.8737 37.7118 33.8762C37.7118 33.5131 38.1657 33.3315 38.8012 33.4223C39.3459 33.6039 39.7998 32.9683 39.7998 32.1512C39.709 31.2432 39.9814 30.6985 40.3445 30.9709C41.5247 31.6972 46.0639 26.2496 45.2468 24.8877C44.8837 24.2522 44.9745 23.9798 45.3376 24.4337C46.2454 25.2509 54.0528 17.8058 53.4173 16.7163C52.8726 15.8084 51.2385 15.7176 51.1477 16.6255ZM198.307 203.478C197.672 204.204 196.764 204.84 196.219 204.84C195.675 204.84 196.038 204.204 197.036 203.478C199.306 201.753 199.76 201.753 198.307 203.478Z" fill="url(#paint4_linear_28218_20774)"/>
<mask id="mask0_28218_20774" style="mask-type:luminance" maskUnits="userSpaceOnUse" x="84" y="41" width="139" height="155">
<path d="M178.709 123.457L206.765 139.654L212.407 136.398C219.144 132.509 223 125.83 223 118.051C223 110.273 219.144 103.593 212.407 99.7042L147.986 62.5108L129.513 51.8453V62.6556L207.727 107.812C211.567 110.029 213.638 113.617 213.638 118.051C213.638 123.579 211.1 126.088 206.825 128.88L121.417 79.5689L121.418 47.1725L115.776 43.9169C109.04 40.0277 101.329 40.0277 94.593 43.9169C87.8565 47.8056 84 54.4841 84 62.2625V136.648V157.979L93.3609 152.575L93.3596 62.2624C93.3596 57.8278 95.4333 54.2383 99.2714 52.0229C104.06 49.2595 107.501 50.2018 112.057 52.508V151.129L84 167.327V173.842C84 181.62 87.8565 188.297 94.593 192.186C101.329 196.075 109.04 196.077 115.776 192.187L180.197 154.994L198.672 144.329L189.311 138.925L111.098 184.081C107.257 186.298 103.112 186.298 99.2726 184.081C94.485 181.316 93.5823 177.864 93.3013 172.766L178.709 123.457ZM121.417 90.3792L169.348 118.051L121.417 145.724V90.3792Z" fill="white"/>
</mask>
<g mask="url(#mask0_28218_20774)">
<path d="M223 40.0273H84V196.076H223V40.0273Z" fill="url(#paint5_linear_28218_20774)"/>
</g>
</g>
<defs>
<linearGradient id="paint0_linear_28218_20774" x1="1348.31" y1="199" x2="319.565" y2="34.219" gradientUnits="userSpaceOnUse">
<stop stop-color="#834190"/>
<stop offset="0.25" stop-color="#FF5F78"/>
<stop offset="0.480769" stop-color="#FF8E39"/>
<stop offset="0.706731" stop-color="#FF8E39"/>
<stop offset="1" stop-color="#FD5981"/>
</linearGradient>
<linearGradient id="paint1_linear_28218_20774" x1="122.194" y1="-0.00390625" x2="122.194" y2="189.524" gradientUnits="userSpaceOnUse">
<stop stop-color="#A1478C"/>
<stop offset="0.5" stop-color="#FF8E39"/>
<stop offset="1" stop-color="#FD5981"/>
</linearGradient>
<linearGradient id="paint2_linear_28218_20774" x1="64.0283" y1="7.88672" x2="64.0283" y2="10.5424" gradientUnits="userSpaceOnUse">
<stop stop-color="#7E6098"/>
<stop offset="1" stop-color="#6F9DC8"/>
</linearGradient>
<linearGradient id="paint3_linear_28218_20774" x1="57.4569" y1="10.6836" x2="57.4569" y2="16.6558" gradientUnits="userSpaceOnUse">
<stop stop-color="#7E6098"/>
<stop offset="1" stop-color="#6F9DC8"/>
</linearGradient>
<linearGradient id="paint4_linear_28218_20774" x1="111.5" y1="15.9883" x2="111.5" y2="234.998" gradientUnits="userSpaceOnUse">
<stop stop-color="#A1478C"/>
<stop offset="0.5" stop-color="#FF8E39"/>
<stop offset="1" stop-color="#FD5981"/>
</linearGradient>
<linearGradient id="paint5_linear_28218_20774" x1="99.4814" y1="190.291" x2="177.735" y2="85.6422" gradientUnits="userSpaceOnUse">
<stop stop-color="#FF8E39"/>
<stop offset="0.0001" stop-color="#FF5980"/>
<stop offset="0.0002" stop-color="#FF6E64"/>
<stop offset="0.0003" stop-color="#834190"/>
<stop offset="0.240385" stop-color="#FF5F78"/>
<stop offset="0.552885" stop-color="#FF8742"/>
</linearGradient>
<clipPath id="clip0_28218_20774">
<rect width="223" height="235" fill="white"/>
</clipPath>
</defs>
</svg>
