<svg width="72" height="73" viewBox="0 0 72 73" fill="none" xmlns="http://www.w3.org/2000/svg">
<path d="M62.91 3.70312H54.09C51.48 3.70312 49.56 4.78313 48.69 6.70312C48.21 7.57312 48 8.59312 48 9.79313V18.6131C48 22.4231 50.28 24.7031 54.09 24.7031H62.91C64.11 24.7031 65.13 24.4931 66 24.0131C67.92 23.1431 69 21.2231 69 18.6131V9.79313C69 5.98312 66.72 3.70312 62.91 3.70312ZM65.73 15.4931C65.43 15.7931 64.98 16.0031 64.5 16.0331H60.27V17.5631L60.3 20.2031C60.27 20.7131 60.09 21.1331 59.73 21.4931C59.43 21.7931 58.98 22.0031 58.5 22.0031C57.51 22.0031 56.7 21.1931 56.7 20.2031V16.0031L52.5 16.0331C51.51 16.0331 50.7 15.1931 50.7 14.2031C50.7 13.2131 51.51 12.4031 52.5 12.4031L55.14 12.4331H56.7V8.23312C56.7 7.24312 57.51 6.40312 58.5 6.40312C59.49 6.40312 60.3 7.24312 60.3 8.23312L60.27 10.3631V12.4031H64.5C65.49 12.4031 66.3 13.2131 66.3 14.2031C66.27 14.7131 66.06 15.1331 65.73 15.4931Z" fill="#1E1E1E" fill-opacity="0.2"/>
<path d="M26.9994 31.8425C30.9427 31.8425 34.1394 28.6458 34.1394 24.7025C34.1394 20.7592 30.9427 17.5625 26.9994 17.5625C23.0561 17.5625 19.8594 20.7592 19.8594 24.7025C19.8594 28.6458 23.0561 31.8425 26.9994 31.8425Z" fill="#1E1E1E" fill-opacity="0.2"/>
<path d="M62.91 24.7031H61.5V38.5331L61.11 38.2031C58.77 36.1931 54.99 36.1931 52.65 38.2031L40.17 48.9131C37.83 50.9231 34.05 50.9231 31.71 48.9131L30.69 48.0731C28.56 46.2131 25.17 46.0331 22.77 47.6531L11.55 55.1831C10.89 53.5031 10.5 51.5531 10.5 49.2731V24.1331C10.5 15.6731 14.97 11.2031 23.43 11.2031H48V9.79312C48 8.59312 48.21 7.57313 48.69 6.70312H23.43C12.51 6.70313 6 13.2131 6 24.1331V49.2731C6 52.5431 6.57 55.3931 7.68 57.7931C10.26 63.4931 15.78 66.7031 23.43 66.7031H48.57C59.49 66.7031 66 60.1931 66 49.2731V24.0131C65.13 24.4931 64.11 24.7031 62.91 24.7031Z" fill="#1E1E1E" fill-opacity="0.2"/>
</svg>
