<svg width="16" height="17" viewBox="0 0 16 17" fill="none" xmlns="http://www.w3.org/2000/svg">
<path d="M8.0026 15.6654C4.04927 15.6654 0.835938 12.452 0.835938 8.4987C0.835938 4.54536 4.04927 1.33203 8.0026 1.33203C11.9559 1.33203 15.1693 4.54536 15.1693 8.4987C15.1693 12.452 11.9559 15.6654 8.0026 15.6654ZM8.0026 2.33203C4.6026 2.33203 1.83594 5.0987 1.83594 8.4987C1.83594 11.8987 4.6026 14.6654 8.0026 14.6654C11.4026 14.6654 14.1693 11.8987 14.1693 8.4987C14.1693 5.0987 11.4026 2.33203 8.0026 2.33203Z" fill="#000"/>
<path d="M10.3359 9H6.33594C6.0626 9 5.83594 8.77333 5.83594 8.5C5.83594 8.22667 6.0626 8 6.33594 8H10.3359C10.6093 8 10.8359 8.22667 10.8359 8.5C10.8359 8.77333 10.6093 9 10.3359 9Z" fill="#000"/>
<path d="M7.67021 10.9983C7.54354 10.9983 7.41688 10.9517 7.31688 10.8517L5.31687 8.85167C5.12354 8.65833 5.12354 8.33833 5.31687 8.145L7.31688 6.145C7.51021 5.95167 7.83021 5.95167 8.02354 6.145C8.21687 6.33833 8.21687 6.65833 8.02354 6.85167L6.37688 8.49833L8.02354 10.145C8.21687 10.3383 8.21687 10.6583 8.02354 10.8517C7.92354 10.9517 7.79688 10.9983 7.67021 10.9983Z" fill="#000"/>
</svg>
