<svg width="16" height="17" viewBox="0 0 16 17" fill="#000" xmlns="http://www.w3.org/2000/svg">
<path d="M10.0026 15.6693H6.0026C2.3826 15.6693 0.835938 14.1226 0.835938 10.5026V6.5026C0.835938 2.8826 2.3826 1.33594 6.0026 1.33594H10.0026C13.6226 1.33594 15.1693 2.8826 15.1693 6.5026V10.5026C15.1693 14.1226 13.6226 15.6693 10.0026 15.6693ZM6.0026 2.33594C2.92927 2.33594 1.83594 3.42927 1.83594 6.5026V10.5026C1.83594 13.5759 2.92927 14.6693 6.0026 14.6693H10.0026C13.0759 14.6693 14.1693 13.5759 14.1693 10.5026V6.5026C14.1693 3.42927 13.0759 2.33594 10.0026 2.33594H6.0026Z" fill="black"/>
<path d="M5.9974 7.66667C4.98406 7.66667 4.16406 6.84667 4.16406 5.83333C4.16406 4.82 4.98406 4 5.9974 4C7.01073 4 7.83073 4.82 7.83073 5.83333C7.83073 6.84667 7.01073 7.66667 5.9974 7.66667ZM5.9974 5C5.5374 5 5.16406 5.37333 5.16406 5.83333C5.16406 6.29333 5.5374 6.66667 5.9974 6.66667C6.4574 6.66667 6.83073 6.29333 6.83073 5.83333C6.83073 5.37333 6.4574 5 5.9974 5Z" fill="black"/>
<path d="M1.7792 13.635C1.6192 13.635 1.4592 13.555 1.36586 13.415C1.21253 13.1883 1.27253 12.875 1.50586 12.7217L4.79253 10.515C5.51253 10.0283 6.50586 10.0883 7.1592 10.6417L7.3792 10.835C7.71253 11.1217 8.2792 11.1217 8.60586 10.835L11.3792 8.455C12.0859 7.84833 13.1992 7.84833 13.9125 8.455L14.9992 9.38833C15.2059 9.56833 15.2325 9.88167 15.0525 10.095C14.8725 10.3017 14.5592 10.3283 14.3459 10.1483L13.2592 9.215C12.9259 8.92833 12.3592 8.92833 12.0259 9.215L9.25253 11.595C8.54586 12.2017 7.43253 12.2017 6.7192 11.595L6.4992 11.4017C6.19253 11.1417 5.68586 11.115 5.34586 11.3483L2.0592 13.555C1.97253 13.6083 1.87253 13.635 1.7792 13.635Z" fill="black"/>
</svg>
