<svg width="24" height="24" viewBox="0 0 24 24" fill="none" xmlns="http://www.w3.org/2000/svg">
<rect width="24" height="24" rx="12" fill="white"/>
<rect x="0.5" y="0.5" width="23" height="23" rx="11.5" stroke="#EEF0FF" stroke-opacity="0.05"/>
<path d="M18.75 11.8817C18.75 11.4008 18.7089 10.9443 18.6384 10.5H12V13.245H15.8009C15.6305 14.1459 15.1312 14.9067 14.391 15.424V17.25H16.6586C17.9863 15.9779 18.75 14.1032 18.75 11.8817Z" fill="#4285F4"/>
<path d="M12.033 18.75C13.8581 18.75 15.3847 18.1661 16.5 17.1766L14.3256 15.5546C13.7173 15.9439 12.9455 16.1818 12.033 16.1818C10.2698 16.1818 8.77709 15.0409 8.24195 13.5H6V15.1707C7.10971 17.2902 9.39109 18.75 12.033 18.75Z" fill="#34A853"/>
<path d="M8.25 13.277C8.10769 12.8755 8.03368 12.4461 8.03368 12C8.03368 11.5539 8.11338 11.1245 8.25 10.723V9H5.98434C5.51755 9.90335 5.25 10.9182 5.25 12C5.25 13.0818 5.51755 14.0967 5.98434 15L8.25 13.277Z" fill="#FBBC05"/>
<path d="M12.004 7.81823C12.9963 7.81823 13.882 8.14804 14.5828 8.79145L16.5 6.94233C15.3396 5.89341 13.8203 5.25 12.004 5.25C9.3748 5.25 7.10438 6.70984 6 8.8293L8.23118 10.5C8.76375 8.95906 10.2493 7.81823 12.004 7.81823Z" fill="#EA4335"/>
</svg>
