<svg width="16" height="17" viewBox="0 0 16 17" fill="none" xmlns="http://www.w3.org/2000/svg">
<path d="M11.8626 15.6653H4.1426C2.31594 15.6653 0.835938 14.1787 0.835938 12.352V7.41201C0.835938 6.50535 1.39594 5.36535 2.11594 4.80535L5.70927 2.00535C6.78927 1.16535 8.51594 1.12535 9.63594 1.91201L13.7559 4.79868C14.5493 5.35201 15.1693 6.53868 15.1693 7.50535V12.3587C15.1693 14.1787 13.6893 15.6653 11.8626 15.6653ZM6.3226 2.79201L2.72927 5.59201C2.25594 5.96535 1.83594 6.81201 1.83594 7.41201V12.352C1.83594 13.6253 2.86927 14.6653 4.1426 14.6653H11.8626C13.1359 14.6653 14.1693 13.632 14.1693 12.3587V7.50535C14.1693 6.86535 13.7093 5.97868 13.1826 5.61868L9.0626 2.73201C8.3026 2.19868 7.04927 2.22535 6.3226 2.79201Z" fill="#000"/>
<path d="M8 13C7.72667 13 7.5 12.7733 7.5 12.5V10.5C7.5 10.2267 7.72667 10 8 10C8.27333 10 8.5 10.2267 8.5 10.5V12.5C8.5 12.7733 8.27333 13 8 13Z" fill="#000"/>
</svg>
