<svg width="20" height="20" viewBox="0 0 20 20" fill="none" xmlns="http://www.w3.org/2000/svg">
<path d="M7.6 18H12.4C16.4 18 18 16.4 18 12.4V7.6C18 3.6 16.4 2 12.4 2H7.6C3.6 2 2 3.6 2 7.6V12.4C2 16.4 3.6 18 7.6 18Z" stroke="#000" stroke-width="1.5" stroke-linecap="round" stroke-linejoin="round"/>
<path d="M7.6 8.39922C8.48366 8.39922 9.2 7.68287 9.2 6.79922C9.2 5.91556 8.48366 5.19922 7.6 5.19922C6.71634 5.19922 6 5.91556 6 6.79922C6 7.68287 6.71634 8.39922 7.6 8.39922Z" stroke="#000" stroke-width="1.5" stroke-linecap="round" stroke-linejoin="round"/>
<path d="M2.53906 15.562L6.48306 12.914C7.11506 12.49 8.02706 12.538 8.59506 13.026L8.85906 13.258C9.48306 13.794 10.4911 13.794 11.1151 13.258L14.4431 10.402C15.0671 9.866 16.0751 9.866 16.6991 10.402L18.0031 11.522" stroke="#000" stroke-width="1.5" stroke-linecap="round" stroke-linejoin="round"/>
</svg>
