<svg width="16" height="17" viewBox="0 0 16 17" fill="none" xmlns="http://www.w3.org/2000/svg">
<path d="M14.6693 6.66797H1.33594C1.0626 6.66797 0.835938 6.4413 0.835938 6.16797C0.835938 5.89464 1.0626 5.66797 1.33594 5.66797H14.6693C14.9426 5.66797 15.1693 5.89464 15.1693 6.16797C15.1693 6.4413 14.9426 6.66797 14.6693 6.66797Z" fill="#000"/>
<path d="M5.33333 12H4C3.72667 12 3.5 11.7733 3.5 11.5C3.5 11.2267 3.72667 11 4 11H5.33333C5.60667 11 5.83333 11.2267 5.83333 11.5C5.83333 11.7733 5.60667 12 5.33333 12Z" fill="#000"/>
<path d="M9.66667 12H7C6.72667 12 6.5 11.7733 6.5 11.5C6.5 11.2267 6.72667 11 7 11H9.66667C9.94 11 10.1667 11.2267 10.1667 11.5C10.1667 11.7733 9.94 12 9.66667 12Z" fill="#000"/>
<path d="M11.7093 14.6654H4.29594C1.6426 14.6654 0.835938 13.8654 0.835938 11.2387V5.7587C0.835938 3.13203 1.6426 2.33203 4.29594 2.33203H11.7026C14.3559 2.33203 15.1626 3.13203 15.1626 5.7587V11.232C15.1693 13.8654 14.3626 14.6654 11.7093 14.6654ZM4.29594 3.33203C2.2026 3.33203 1.83594 3.69203 1.83594 5.7587V11.232C1.83594 13.2987 2.2026 13.6587 4.29594 13.6587H11.7026C13.7959 13.6587 14.1626 13.2987 14.1626 11.232V5.7587C14.1626 3.69203 13.7959 3.33203 11.7026 3.33203H4.29594Z" fill="#000"/>
</svg>
