<svg width="18" height="22" viewBox="0 0 18 22" fill="none" xmlns="http://www.w3.org/2000/svg" class="flex-shrink-0"><path fill-rule="evenodd" clip-rule="evenodd" d="M14.2143 9.17537V9.17647C15.1176 10.3018 15.6579 11.7274 15.6579 13.2775C15.6579 14.8277 15.1016 16.2957 14.1733 17.4287L14.0933 17.5263L14.0722 17.4023C14.0542 17.2969 14.0329 17.1903 14.0085 17.083C13.5441 15.0563 12.0305 13.3182 9.53955 11.9111C7.85752 10.9634 6.89466 9.82218 6.64183 8.52582C6.47844 7.68735 6.60001 6.8453 6.83457 6.12397C7.06912 5.40293 7.41804 4.79875 7.71435 4.4352L8.6833 3.25847C8.85334 3.05222 9.17124 3.05222 9.34127 3.25847L14.2146 9.17565L14.2143 9.17537ZM15.7471 7.99975V7.9992L9.2521 0.113025C9.12804 -0.037675 8.89598 -0.037675 8.77192 0.113025L2.27696 7.99948V8.00002L2.25592 8.02615C1.061 9.49877 0.345703 11.3704 0.345703 13.4079C0.345703 18.153 4.22567 22 9.01201 22C13.7984 22 17.6783 18.153 17.6783 13.4079C17.6783 11.3704 16.963 9.49878 15.7678 8.02588L15.7465 7.99975H15.7471ZM3.83133 9.1498L4.41232 8.44415L4.42977 8.5745C4.44361 8.67762 4.4605 8.7813 4.48044 8.88552C4.85623 10.8441 6.19903 12.477 8.44404 13.7418C10.3955 14.8445 11.5317 16.1128 11.8591 17.5037C11.9956 18.0843 12.02 18.6554 11.961 19.1549L11.9574 19.1856L11.9291 19.1994C11.0485 19.6267 10.0582 19.8665 9.01173 19.8665C5.3414 19.8665 2.36586 16.9166 2.36586 13.2775C2.36586 11.7153 2.91444 10.2795 3.83106 9.15007L3.83133 9.1498Z" fill="url(#paint0_linear_195_12858)"></path><defs><linearGradient id="paint0_linear_195_12858" x1="0.345703" y1="0" x2="21.7347" y2="16.8513" gradientUnits="userSpaceOnUse"><stop stop-color="#C251FF"></stop><stop offset="1" stop-color="#4CA2FF"></stop></linearGradient></defs></svg>