<svg width="16" height="16" viewBox="0 0 16 16" fill="none" xmlns="http://www.w3.org/2000/svg">
<path d="M6.66247 15.0317C6.62914 15.0317 6.5958 15.0317 6.56247 15.0184C4.00913 14.4984 1.9358 12.6184 1.16247 10.1251C1.08247 9.85841 1.22914 9.57841 1.48914 9.49841C1.75581 9.41841 2.0358 9.56507 2.1158 9.82507C2.78247 11.9717 4.56247 13.5851 6.76247 14.0317C7.0358 14.0851 7.20914 14.3517 7.14914 14.6251C7.10247 14.8651 6.88914 15.0317 6.66247 15.0317Z" fill="#1E1E1E"/>
<path d="M14.6374 7.8226C14.3841 7.8226 14.1641 7.62927 14.1374 7.37594C13.8174 4.21594 11.1774 1.83594 8.00405 1.83594C4.82405 1.83594 2.19072 4.21594 1.87072 7.36927C1.84406 7.6426 1.60406 7.84927 1.32406 7.81594C1.05072 7.78927 0.850718 7.5426 0.877385 7.26927C1.25072 3.6026 4.31739 0.835938 8.00405 0.835938C11.6974 0.835938 14.7641 3.6026 15.1307 7.26927C15.1574 7.5426 14.9574 7.78927 14.6841 7.81594C14.6707 7.8226 14.6507 7.8226 14.6374 7.8226Z" fill="#1E1E1E"/>
<path d="M9.34006 15.0339C9.10673 15.0339 8.90006 14.8739 8.85339 14.6339C8.80006 14.3605 8.97339 14.1005 9.24006 14.0472C11.4267 13.6005 13.2067 12.0005 13.8801 9.86721C13.9601 9.60055 14.2467 9.45388 14.5067 9.54055C14.7734 9.62055 14.9134 9.90721 14.8334 10.1672C14.0467 12.6472 11.9801 14.5072 9.44006 15.0272C9.40673 15.0272 9.37339 15.0339 9.34006 15.0339Z" fill="#1E1E1E"/>
</svg>
