<svg width="17" height="18" viewBox="0 0 17 18" xmlns="http://www.w3.org/2000/svg">
<path fill-rule="evenodd" clip-rule="evenodd" d="M4.50836 11.0348C4.88554 11.0348 5.19154 11.3449 5.19154 11.7295C5.19154 11.9716 5.06963 12.1844 4.8839 12.3087C3.30072 13.4435 2.20763 15.2386 2.00799 17.3045L2.00881 17.3054C2.00881 17.6891 1.70281 18 1.32563 18C0.947628 18 0.642446 17.6891 0.642446 17.3054L0.636719 17.3086C0.83881 14.7731 2.16099 12.5648 4.09517 11.1788C4.21054 11.0896 4.3529 11.0348 4.50836 11.0348ZM16.9889 17.3054L17.0004 17.4305C16.9971 17.3921 16.9914 17.3545 16.9881 17.3152C16.9815 17.694 16.6796 18 16.3057 18C15.9285 18 15.6225 17.6883 15.6225 17.3054H15.6209C15.2814 13.7864 12.3662 11.0365 8.81854 11.0348L8.81526 11.034C8.80872 11.034 8.80299 11.0348 8.79645 11.0348C5.80108 11.0348 3.37272 8.56391 3.37272 5.517C3.37272 2.47009 5.80108 0 8.79645 0C8.79972 0 8.80299 0.000818182 8.80545 0.000818182C8.80872 0.000818182 8.81199 0 8.81526 0C11.809 0 14.2365 2.46927 14.2365 5.51536C14.2365 6.65509 13.888 7.70645 13.3046 8.58436C13.2989 8.59336 13.2932 8.60155 13.2874 8.61055C13.2024 8.73736 13.1124 8.86009 13.0166 8.97873C12.9839 9.02046 12.9495 9.05973 12.916 9.10064C12.8293 9.20209 12.7425 9.30355 12.6484 9.39927C12.5805 9.46964 12.5069 9.53427 12.4349 9.60055C12.3294 9.69791 12.2205 9.79282 12.106 9.882C11.9914 9.97118 11.8769 10.0579 11.755 10.1381C11.7337 10.152 11.7149 10.17 11.6928 10.1831C14.5556 11.2762 16.6543 13.9451 16.9709 17.1532C16.9815 17.2023 16.9889 17.253 16.9889 17.3054ZM8.81526 9.64145C8.9519 9.64145 9.0869 9.63409 9.22108 9.62018C11.2616 9.40418 12.8522 7.65 12.8522 5.517C12.8522 3.23836 11.0366 1.39173 8.79645 1.39173C8.65981 1.39173 8.52399 1.39909 8.39063 1.41218C6.35008 1.62818 4.75872 3.38236 4.75872 5.51536C4.75872 7.794 6.57426 9.64145 8.81526 9.64145Z" fill="white"/>
</svg>
