<svg width="16" height="17" viewBox="0 0 16 17" fill="none" xmlns="http://www.w3.org/2000/svg">
<path d="M10.0026 15.6654H6.0026C2.3826 15.6654 0.835938 14.1187 0.835938 10.4987V6.4987C0.835938 2.8787 2.3826 1.33203 6.0026 1.33203H10.0026C13.6226 1.33203 15.1693 2.8787 15.1693 6.4987V10.4987C15.1693 14.1187 13.6226 15.6654 10.0026 15.6654ZM6.0026 2.33203C2.92927 2.33203 1.83594 3.42536 1.83594 6.4987V10.4987C1.83594 13.572 2.92927 14.6654 6.0026 14.6654H10.0026C13.0759 14.6654 14.1693 13.572 14.1693 10.4987V6.4987C14.1693 3.42536 13.0759 2.33203 10.0026 2.33203H6.0026Z" fill="black"/>
<path d="M14.3197 5.73828H1.67969C1.40635 5.73828 1.17969 5.51161 1.17969 5.23828C1.17969 4.96495 1.39969 4.73828 1.67969 4.73828H14.3197C14.593 4.73828 14.8197 4.96495 14.8197 5.23828C14.8197 5.51161 14.5997 5.73828 14.3197 5.73828Z" fill="black"/>
<path d="M5.67969 5.64625C5.40635 5.64625 5.17969 5.41958 5.17969 5.14625V1.90625C5.17969 1.63292 5.40635 1.40625 5.67969 1.40625C5.95302 1.40625 6.17969 1.63292 6.17969 1.90625V5.14625C6.17969 5.41958 5.95302 5.64625 5.67969 5.64625Z" fill="black"/>
<path d="M10.3203 5.34625C10.047 5.34625 9.82031 5.11958 9.82031 4.84625V1.90625C9.82031 1.63292 10.047 1.40625 10.3203 1.40625C10.5936 1.40625 10.8203 1.63292 10.8203 1.90625V4.84625C10.8203 5.12625 10.6003 5.34625 10.3203 5.34625Z" fill="black"/>
<path d="M7.39333 12.5808C7.15333 12.5808 6.92667 12.5208 6.72 12.4075C6.26667 12.1408 6 11.6075 6 10.9342V9.33415C6 8.66082 6.26667 8.12082 6.72667 7.85415C7.18667 7.58749 7.78667 7.62749 8.36667 7.96749L9.75333 8.76749C10.3333 9.10082 10.6733 9.60082 10.6733 10.1342C10.6733 10.6675 10.3333 11.1675 9.74667 11.5008L8.36 12.3008C8.04 12.4875 7.70667 12.5808 7.39333 12.5808ZM7.4 8.68082C7.33333 8.68082 7.27333 8.69415 7.22667 8.72082C7.08667 8.80082 7 9.02749 7 9.33415V10.9342C7 11.2342 7.08667 11.4608 7.22667 11.5475C7.36667 11.6275 7.60667 11.5875 7.86667 11.4342L9.25333 10.6342C9.51333 10.4808 9.67333 10.2942 9.67333 10.1342C9.67333 9.97415 9.52 9.78749 9.25333 9.63415L7.86667 8.83415C7.69333 8.73415 7.52667 8.68082 7.4 8.68082Z" fill="black"/>
</svg>
