<svg width="24" height="24" viewBox="0 0 24 24" fill="none" xmlns="http://www.w3.org/2000/svg">
<path d="M13.452 5.15089L14.8702 7.98714C15.0635 8.3739 15.5792 8.76066 16.009 8.82512L18.5766 9.25485C20.2204 9.53418 20.6071 10.716 19.4253 11.8977L17.4271 13.9067C17.094 14.2398 16.9007 14.8951 17.0081 15.3678L17.5775 17.8495C18.0287 19.8048 16.9866 20.5676 15.2569 19.547L12.8504 18.1181C12.4099 17.8603 11.7009 17.8603 11.2604 18.1181L8.84313 19.5363C7.11345 20.5569 6.07134 19.7941 6.52256 17.8388L7.09196 15.3571C7.1994 14.8951 7.00602 14.2398 6.67297 13.896L4.68545 11.9085C3.50368 10.7267 3.89044 9.53418 5.53417 9.2656L8.10184 8.83586C8.53157 8.76066 9.04726 8.38464 9.24064 7.99788L10.6588 5.16163C11.4215 3.61459 12.6893 3.61459 13.452 5.15089Z" fill="#1E1E1E"/>
</svg>
